<?xml version="1.0" encoding="UTF-8" standalone="no"?>
<!DOCTYPE svg PUBLIC "-//W3C//DTD SVG 1.1//EN"
 "http://www.w3.org/Graphics/SVG/1.1/DTD/svg11.dtd">
<!-- Generated by graphviz version 2.40.1 (20161225.0304)
 -->
<!-- Title: G Pages: 1 -->
<svg width="124pt" height="150pt"
 viewBox="0.00 0.00 124.00 150.00" xmlns="http://www.w3.org/2000/svg" xmlns:xlink="http://www.w3.org/1999/xlink">
<g id="graph0" class="graph" transform="scale(1 1) rotate(0) translate(4 146)">
<title>G</title>
<polygon fill="#ffffff" stroke="transparent" points="-4,4 -4,-146 120,-146 120,4 -4,4"/>
<g id="clust1" class="cluster">
<title>cluster_Global</title>
<path fill="none" stroke="#c0c0c0" d="M20,-8C20,-8 96,-8 96,-8 102,-8 108,-14 108,-20 108,-20 108,-122 108,-122 108,-128 102,-134 96,-134 96,-134 20,-134 20,-134 14,-134 8,-128 8,-122 8,-122 8,-20 8,-20 8,-14 14,-8 20,-8"/>
<text text-anchor="middle" x="58" y="-121.2" font-family="Times,serif" font-size="11.00" fill="#c0c0c0">Global</text>
</g>
<!-- \\Controller -->
<g id="node1" class="node">
<title>\\Controller</title>
<polygon fill="none" stroke="#000000" points="100,-106 16,-106 16,-70 100,-70 100,-106"/>
<text text-anchor="middle" x="58" y="-85.2" font-family="Courier,monospace" font-size="11.00" fill="#000000">Controller</text>
</g>
<!-- \\Model -->
<g id="node2" class="node">
<title>\\Model</title>
<polygon fill="none" stroke="#000000" points="85,-52 31,-52 31,-16 85,-16 85,-52"/>
<text text-anchor="middle" x="58" y="-31.2" font-family="Courier,monospace" font-size="11.00" fill="#000000">Model</text>
</g>
</g>
</svg>
